<svg width="99" height="42" viewBox="0 0 99 42" fill="none" xmlns="http://www.w3.org/2000/svg">
<path d="M0.875 32V-9.53674e-07H4.75V28.5625H19.625V32H0.875ZM34.875 32.5C32.7083 32.5 30.8073 31.9844 29.1719 30.9531C27.5469 29.9219 26.276 28.4792 25.3594 26.625C24.4531 24.7708 24 22.6042 24 20.125C24 17.625 24.4531 15.4427 25.3594 13.5781C26.276 11.7135 27.5469 10.2656 29.1719 9.23438C30.8073 8.20313 32.7083 7.6875 34.875 7.6875C37.0417 7.6875 38.9375 8.20313 40.5625 9.23438C42.1979 10.2656 43.4688 11.7135 44.375 13.5781C45.2917 15.4427 45.75 17.625 45.75 20.125C45.75 22.6042 45.2917 24.7708 44.375 26.625C43.4688 28.4792 42.1979 29.9219 40.5625 30.9531C38.9375 31.9844 37.0417 32.5 34.875 32.5ZM34.875 29.1875C36.5208 29.1875 37.875 28.7656 38.9375 27.9219C40 27.0781 40.7865 25.9687 41.2969 24.5937C41.8073 23.2187 42.0625 21.7292 42.0625 20.125C42.0625 18.5208 41.8073 17.026 41.2969 15.6406C40.7865 14.2552 40 13.1354 38.9375 12.2812C37.875 11.4271 36.5208 11 34.875 11C33.2292 11 31.875 11.4271 30.8125 12.2812C29.75 13.1354 28.9635 14.2552 28.4531 15.6406C27.9427 17.026 27.6875 18.5208 27.6875 20.125C27.6875 21.7292 27.9427 23.2187 28.4531 24.5937C28.9635 25.9687 29.75 27.0781 30.8125 27.9219C31.875 28.7656 33.2292 29.1875 34.875 29.1875ZM61.0664 41.5C59.2852 41.5 57.7539 41.2708 56.4727 40.8125C55.1914 40.3646 54.1237 39.7708 53.2695 39.0313C52.4258 38.3021 51.7539 37.5208 51.2539 36.6875L54.1914 34.625C54.5247 35.0625 54.9466 35.5625 55.457 36.125C55.9674 36.6979 56.6654 37.1927 57.5508 37.6094C58.4466 38.0365 59.6185 38.25 61.0664 38.25C63.0039 38.25 64.6029 37.7813 65.8633 36.8438C67.1237 35.9063 67.7539 34.4375 67.7539 32.4375V27.5625H67.4414C67.1706 28 66.7852 28.5417 66.2852 29.1875C65.7956 29.8229 65.0872 30.3906 64.1602 30.8906C63.2435 31.3802 62.0039 31.625 60.4414 31.625C58.5039 31.625 56.7643 31.1667 55.2227 30.25C53.6914 29.3333 52.4779 28 51.582 26.25C50.6966 24.5 50.2539 22.375 50.2539 19.875C50.2539 17.4167 50.6862 15.276 51.5508 13.4531C52.4154 11.6198 53.6185 10.2031 55.1602 9.20312C56.7018 8.19271 58.4831 7.6875 60.5039 7.6875C62.0664 7.6875 63.306 7.94792 64.2227 8.46875C65.1497 8.97917 65.8581 9.5625 66.3477 10.2187C66.8477 10.8646 67.2331 11.3958 67.5039 11.8125H67.8789V8H71.4414V32.6875C71.4414 34.75 70.9727 36.4271 70.0352 37.7188C69.1081 39.0208 67.8581 39.974 66.2852 40.5781C64.7227 41.1927 62.9831 41.5 61.0664 41.5ZM60.9414 28.3125C62.4206 28.3125 63.6706 27.974 64.6914 27.2969C65.7122 26.6198 66.4883 25.6458 67.0195 24.375C67.5508 23.1042 67.8164 21.5833 67.8164 19.8125C67.8164 18.0833 67.556 16.5573 67.0352 15.2344C66.5143 13.9115 65.7435 12.875 64.7227 12.125C63.7018 11.375 62.4414 11 60.9414 11C59.3789 11 58.0768 11.3958 57.0352 12.1875C56.0039 12.9792 55.2279 14.0417 54.707 15.375C54.1966 16.7083 53.9414 18.1875 53.9414 19.8125C53.9414 21.4792 54.2018 22.9531 54.7227 24.2344C55.2539 25.5052 56.0352 26.5052 57.0664 27.2344C58.1081 27.9531 59.3997 28.3125 60.9414 28.3125ZM87.9414 32.5C85.7747 32.5 83.8737 31.9844 82.2383 30.9531C80.6133 29.9219 79.3424 28.4792 78.4258 26.625C77.5195 24.7708 77.0664 22.6042 77.0664 20.125C77.0664 17.625 77.5195 15.4427 78.4258 13.5781C79.3424 11.7135 80.6133 10.2656 82.2383 9.23438C83.8737 8.20313 85.7747 7.6875 87.9414 7.6875C90.1081 7.6875 92.0039 8.20313 93.6289 9.23438C95.2643 10.2656 96.5352 11.7135 97.4414 13.5781C98.3581 15.4427 98.8164 17.625 98.8164 20.125C98.8164 22.6042 98.3581 24.7708 97.4414 26.625C96.5352 28.4792 95.2643 29.9219 93.6289 30.9531C92.0039 31.9844 90.1081 32.5 87.9414 32.5ZM87.9414 29.1875C89.5872 29.1875 90.9414 28.7656 92.0039 27.9219C93.0664 27.0781 93.8529 25.9687 94.3633 24.5937C94.8737 23.2187 95.1289 21.7292 95.1289 20.125C95.1289 18.5208 94.8737 17.026 94.3633 15.6406C93.8529 14.2552 93.0664 13.1354 92.0039 12.2812C90.9414 11.4271 89.5872 11 87.9414 11C86.2956 11 84.9414 11.4271 83.8789 12.2812C82.8164 13.1354 82.0299 14.2552 81.5195 15.6406C81.0091 17.026 80.7539 18.5208 80.7539 20.125C80.7539 21.7292 81.0091 23.2187 81.5195 24.5937C82.0299 25.9687 82.8164 27.0781 83.8789 27.9219C84.9414 28.7656 86.2956 29.1875 87.9414 29.1875Z" fill="white"/>
</svg>
