<svg width="19" height="19" viewBox="0 0 19 19" fill="none" xmlns="http://www.w3.org/2000/svg">
<g clip-path="url(#clip0_129_2244)">
<path d="M6.33335 17.4173C6.77058 17.4173 7.12502 17.0629 7.12502 16.6257C7.12502 16.1884 6.77058 15.834 6.33335 15.834C5.89613 15.834 5.54169 16.1884 5.54169 16.6257C5.54169 17.0629 5.89613 17.4173 6.33335 17.4173Z" stroke="#484E57" stroke-width="1.58333" stroke-linecap="round" stroke-linejoin="round"/>
<path d="M15.0417 17.4173C15.4789 17.4173 15.8333 17.0629 15.8333 16.6257C15.8333 16.1884 15.4789 15.834 15.0417 15.834C14.6044 15.834 14.25 16.1884 14.25 16.6257C14.25 17.0629 14.6044 17.4173 15.0417 17.4173Z" stroke="#484E57" stroke-width="1.58333" stroke-linecap="round" stroke-linejoin="round"/>
<path d="M1.62274 1.62305H3.20608L5.31191 11.4555C5.38916 11.8156 5.58952 12.1375 5.87851 12.3659C6.1675 12.5942 6.52704 12.7146 6.89524 12.7064H14.6377C14.9981 12.7058 15.3475 12.5823 15.6281 12.3563C15.9088 12.1304 16.104 11.8154 16.1815 11.4635L17.4877 5.58138H4.05316" stroke="#484E57" stroke-width="1.58333" stroke-linecap="round" stroke-linejoin="round"/>
</g>
<defs>
<clipPath id="clip0_129_2244">
<rect width="19" height="19" fill="white"/>
</clipPath>
</defs>
</svg>
